<?xml version="1.0" standalone="no"?>
<!DOCTYPE svg PUBLIC "-//W3C//DTD SVG 20010904//EN"
 "http://www.w3.org/TR/2001/REC-SVG-20010904/DTD/svg10.dtd">
<svg version="1.0" xmlns="http://www.w3.org/2000/svg"
 width="640.000000pt" height="640.000000pt" viewBox="0 0 640.000000 640.000000"
 preserveAspectRatio="xMidYMid meet">
<metadata>
Created by potrace 1.14, written by Peter Selinger 2001-2017
</metadata>
<g transform="translate(0.000000,640.000000) scale(0.100000,-0.100000)"
fill="#000000" stroke="none">
<path d="M3155 6380 c-16 -10 -41 -25 -55 -33 -14 -7 -99 -57 -190 -109 -91
-53 -181 -104 -200 -115 -19 -11 -59 -34 -88 -52 -29 -17 -57 -31 -62 -31 -6
0 -10 -4 -10 -8 0 -4 -12 -13 -27 -20 -16 -6 -55 -28 -88 -47 -33 -20 -68 -39
-77 -42 -10 -3 -18 -9 -18 -13 0 -4 -8 -10 -17 -13 -10 -4 -39 -19 -64 -34
-26 -15 -128 -75 -228 -133 -101 -58 -203 -117 -229 -133 -26 -15 -78 -46
-117 -68 -38 -22 -86 -49 -105 -61 -19 -11 -53 -30 -75 -41 -22 -12 -42 -25
-45 -28 -3 -3 -40 -25 -82 -49 -42 -24 -74 -48 -71 -53 3 -6 1 -7 -6 -3 -6 4
-34 -6 -61 -23 -28 -17 -55 -31 -60 -31 -6 0 -10 -4 -10 -9 0 -5 -8 -11 -18
-14 -18 -6 -92 -48 -160 -91 -23 -14 -44 -26 -46 -26 -3 0 -43 -22 -90 -50
-47 -27 -89 -50 -95 -50 -5 0 -11 -4 -13 -8 -2 -4 -70 -45 -151 -91 -81 -47
-151 -89 -154 -94 -3 -5 -7 -728 -10 -1606 l-4 -1597 50 -24 c28 -14 51 -28
51 -32 0 -5 4 -8 10 -8 8 0 44 -20 180 -100 32 -19 126 -74 155 -90 89 -51
112 -65 127 -78 10 -8 18 -12 18 -8 0 4 12 -1 27 -12 47 -32 412 -242 422
-242 5 0 11 -4 13 -8 2 -6 113 -72 318 -190 19 -11 78 -44 130 -74 52 -30 178
-103 280 -163 102 -59 199 -115 215 -125 17 -9 111 -64 210 -122 99 -57 200
-116 225 -130 25 -14 85 -48 133 -77 49 -28 93 -51 98 -51 5 0 9 -4 9 -10 0
-5 5 -10 10 -10 6 0 28 -11 50 -25 l39 -25 48 26 c56 30 83 45 253 144 120 70
164 95 240 136 19 10 37 22 38 27 2 4 7 7 11 7 4 0 117 63 251 140 134 77 247
140 252 140 4 0 8 4 8 9 0 5 8 11 18 14 20 7 155 82 192 107 14 9 32 20 40 23
8 4 27 15 42 25 24 16 189 112 283 165 22 12 42 24 45 27 3 3 16 11 30 18 14
7 39 20 55 31 84 51 227 131 235 131 4 0 10 4 12 8 2 4 50 34 108 67 58 33
107 63 108 67 2 4 12 8 22 8 10 0 20 4 22 8 4 10 146 92 159 92 5 0 9 5 9 10
0 6 4 10 9 10 5 0 73 37 151 82 l143 82 -7 95 c-4 53 -8 772 -9 1599 -2 1594
0 1521 -44 1522 -6 0 -13 4 -15 8 -1 4 -41 29 -88 56 -47 27 -100 57 -117 67
-18 11 -50 29 -70 40 -21 12 -51 30 -68 40 -16 10 -41 24 -55 30 -13 5 -27 13
-30 17 -6 8 -58 37 -107 61 -18 8 -33 19 -33 23 0 4 -4 8 -10 8 -5 0 -58 29
-117 64 -60 35 -135 79 -169 97 -33 19 -164 94 -290 167 -278 162 -240 140
-354 205 -52 30 -173 100 -269 156 -95 55 -174 101 -176 101 -2 0 -76 43 -165
95 -89 52 -163 95 -165 95 -1 0 -42 24 -91 53 -49 29 -96 56 -104 60 -8 4 -22
11 -30 17 -40 26 -208 120 -212 119 -2 0 -16 -9 -33 -19z m-677 -1152 c76 -40
90 -47 212 -120 52 -30 111 -65 131 -76 77 -43 84 -47 89 -52 3 -3 19 -12 35
-20 17 -8 41 -22 55 -31 14 -10 53 -32 85 -50 33 -18 77 -44 99 -58 21 -14 50
-33 65 -41 14 -8 28 -18 29 -22 2 -5 9 -8 15 -8 7 0 40 -18 75 -40 34 -22 64
-40 66 -40 3 0 337 -191 366 -210 8 -5 38 -22 65 -38 28 -15 127 -73 220 -127
94 -55 186 -107 205 -118 19 -10 47 -26 62 -35 14 -9 74 -44 132 -77 l106 -60
0 -801 0 -802 -37 -22 c-21 -13 -94 -55 -163 -95 -69 -40 -146 -85 -170 -100
-25 -14 -57 -31 -72 -38 -16 -6 -28 -15 -28 -19 0 -4 -6 -8 -14 -8 -7 0 -19
-7 -26 -15 -7 -8 -16 -13 -20 -10 -5 3 -10 2 -12 -3 -2 -6 -131 -81 -233 -136
-11 -6 -22 -14 -25 -17 -5 -5 -59 -36 -150 -85 -19 -11 -36 -22 -38 -26 -2 -5
-8 -8 -13 -8 -5 0 -46 -22 -91 -49 -46 -27 -130 -76 -187 -109 -102 -59 -103
-60 -80 -75 13 -8 121 -71 239 -140 205 -119 259 -150 323 -186 16 -9 36 -20
45 -26 10 -5 47 -27 85 -48 64 -36 86 -54 50 -40 -13 5 -296 166 -503 286 -19
11 -46 27 -60 34 -14 8 -38 23 -55 33 -16 10 -52 31 -80 45 -27 15 -57 34 -65
44 -13 14 -66 47 -200 123 -19 11 -88 51 -152 89 -64 38 -121 69 -127 69 -5 0
-11 3 -13 8 -1 4 -19 16 -38 26 -19 10 -62 35 -95 54 -33 19 -76 43 -95 54
-19 11 -55 32 -80 47 -25 14 -57 33 -71 41 -15 8 -120 69 -234 135 -114 66
-226 130 -248 143 l-42 22 1 797 1 797 27 21 c14 11 60 38 101 60 41 22 75 43
75 47 0 5 4 8 8 8 7 0 84 41 140 75 20 12 156 90 210 121 55 31 405 234 422
245 13 8 95 54 230 131 130 75 160 93 160 100 0 4 -4 8 -10 8 -5 0 -49 23 -97
51 -48 28 -112 65 -141 81 -30 17 -99 57 -154 89 -55 32 -104 59 -109 59 -5 0
-9 4 -9 9 0 5 -8 11 -17 14 -10 3 -40 20 -68 36 -27 17 -57 34 -65 38 -45 23
-170 95 -170 98 0 6 58 -20 128 -57z"/>
</g>
</svg>
